<svg width="14" height="14" viewBox="0 0 14 14" fill="none" xmlns="http://www.w3.org/2000/svg">
<path d="M0.875 12.25H13.125C13.3666 12.25 13.5625 12.0541 13.5625 11.8125C13.5625 11.5709 13.3666 11.375 13.125 11.375H0.875C0.633375 11.375 0.4375 11.5709 0.4375 11.8125C0.4375 12.0541 0.633375 12.25 0.875 12.25Z" fill="#858B8F"/>
<path d="M1.3125 2.1875V11.8125C1.3125 12.0541 1.50838 12.25 1.75 12.25C1.99162 12.25 2.1875 12.0541 2.1875 11.8125V2.1875H7.4375V11.8125C7.4375 12.0541 7.63338 12.25 7.875 12.25C8.11662 12.25 8.3125 12.0541 8.3125 11.8125V2.1875C8.3125 1.82506 8.05622 1.56878 8.05622 1.56878C7.79994 1.3125 7.4375 1.3125 7.4375 1.3125H2.1875C1.82506 1.3125 1.56878 1.56878 1.56878 1.56878C1.3125 1.82506 1.3125 2.1875 1.3125 2.1875Z" fill="#858B8F"/>
<path d="M11.8125 4.8125H7.875C7.63338 4.8125 7.4375 5.00838 7.4375 5.25C7.4375 5.49162 7.63338 5.6875 7.875 5.6875H11.8125V11.8125C11.8125 12.0541 12.0084 12.25 12.25 12.25C12.4916 12.25 12.6875 12.0541 12.6875 11.8125V5.6875C12.6875 5.32506 12.4312 5.06878 12.4312 5.06878C12.1749 4.8125 11.8125 4.8125 11.8125 4.8125Z" fill="#858B8F"/>
<path d="M3.5 4.375H5.25C5.49162 4.375 5.6875 4.17912 5.6875 3.9375C5.6875 3.69588 5.49162 3.5 5.25 3.5H3.5C3.25838 3.5 3.0625 3.69588 3.0625 3.9375C3.0625 4.17912 3.25838 4.375 3.5 4.375Z" fill="#858B8F"/>
<path d="M4.375 7.875H6.125C6.36662 7.875 6.5625 7.67912 6.5625 7.4375C6.5625 7.19588 6.36662 7 6.125 7H4.375C4.13338 7 3.9375 7.19588 3.9375 7.4375C3.9375 7.67912 4.13338 7.875 4.375 7.875Z" fill="#858B8F"/>
<path d="M3.5 10.0625H5.25C5.49162 10.0625 5.6875 9.86662 5.6875 9.625C5.6875 9.38338 5.49162 9.1875 5.25 9.1875H3.5C3.25838 9.1875 3.0625 9.38338 3.0625 9.625C3.0625 9.86662 3.25838 10.0625 3.5 10.0625Z" fill="#858B8F"/>
<path d="M9.1875 9.625C9.1875 9.86662 9.38338 10.0625 9.625 10.0625H10.5C10.7416 10.0625 10.9375 9.86662 10.9375 9.625C10.9375 9.38338 10.7416 9.1875 10.5 9.1875H9.625C9.38338 9.1875 9.1875 9.38338 9.1875 9.625Z" fill="#858B8F"/>
<path d="M9.1875 7.4375C9.1875 7.67912 9.38338 7.875 9.625 7.875H10.5C10.7416 7.875 10.9375 7.67912 10.9375 7.4375C10.9375 7.19588 10.7416 7 10.5 7H9.625C9.38338 7 9.1875 7.19588 9.1875 7.4375Z" fill="#858B8F"/>
<path d="M0.875 12.25H13.125C13.3666 12.25 13.5625 12.0541 13.5625 11.8125C13.5625 11.5709 13.3666 11.375 13.125 11.375H0.875C0.633375 11.375 0.4375 11.5709 0.4375 11.8125C0.4375 12.0541 0.633375 12.25 0.875 12.25Z" stroke="#858B8F"/>
<path d="M1.3125 2.1875V11.8125C1.3125 12.0541 1.50838 12.25 1.75 12.25C1.99162 12.25 2.1875 12.0541 2.1875 11.8125V2.1875H7.4375V11.8125C7.4375 12.0541 7.63338 12.25 7.875 12.25C8.11662 12.25 8.3125 12.0541 8.3125 11.8125V2.1875C8.3125 1.82506 8.05622 1.56878 8.05622 1.56878C7.79994 1.3125 7.4375 1.3125 7.4375 1.3125H2.1875C1.82506 1.3125 1.56878 1.56878 1.56878 1.56878C1.3125 1.82506 1.3125 2.1875 1.3125 2.1875Z" stroke="#858B8F"/>
<path d="M11.8125 4.8125H7.875C7.63338 4.8125 7.4375 5.00838 7.4375 5.25C7.4375 5.49162 7.63338 5.6875 7.875 5.6875H11.8125V11.8125C11.8125 12.0541 12.0084 12.25 12.25 12.25C12.4916 12.25 12.6875 12.0541 12.6875 11.8125V5.6875C12.6875 5.32506 12.4312 5.06878 12.4312 5.06878C12.1749 4.8125 11.8125 4.8125 11.8125 4.8125Z" stroke="#858B8F"/>
<path d="M3.5 4.375H5.25C5.49162 4.375 5.6875 4.17912 5.6875 3.9375C5.6875 3.69588 5.49162 3.5 5.25 3.5H3.5C3.25838 3.5 3.0625 3.69588 3.0625 3.9375C3.0625 4.17912 3.25838 4.375 3.5 4.375Z" stroke="#858B8F"/>
<path d="M4.375 7.875H6.125C6.36662 7.875 6.5625 7.67912 6.5625 7.4375C6.5625 7.19588 6.36662 7 6.125 7H4.375C4.13338 7 3.9375 7.19588 3.9375 7.4375C3.9375 7.67912 4.13338 7.875 4.375 7.875Z" stroke="#858B8F"/>
<path d="M3.5 10.0625H5.25C5.49162 10.0625 5.6875 9.86662 5.6875 9.625C5.6875 9.38338 5.49162 9.1875 5.25 9.1875H3.5C3.25838 9.1875 3.0625 9.38338 3.0625 9.625C3.0625 9.86662 3.25838 10.0625 3.5 10.0625Z" stroke="#858B8F"/>
<path d="M9.1875 9.625C9.1875 9.86662 9.38338 10.0625 9.625 10.0625H10.5C10.7416 10.0625 10.9375 9.86662 10.9375 9.625C10.9375 9.38338 10.7416 9.1875 10.5 9.1875H9.625C9.38338 9.1875 9.1875 9.38338 9.1875 9.625Z" stroke="#858B8F"/>
<path d="M9.1875 7.4375C9.1875 7.67912 9.38338 7.875 9.625 7.875H10.5C10.7416 7.875 10.9375 7.67912 10.9375 7.4375C10.9375 7.19588 10.7416 7 10.5 7H9.625C9.38338 7 9.1875 7.19588 9.1875 7.4375Z" stroke="#858B8F"/>
</svg>
